<?xml version="1.0" encoding="UTF-8" standalone="no"?>
<!-- Created with Inkscape (http://www.inkscape.org/) -->

<svg
   version="1.1"
   id="svg2"
   width="1058.6667"
   height="1168"
   viewBox="0 0 1058.6667 1168"
   xmlns="http://www.w3.org/2000/svg"
   xmlns:svg="http://www.w3.org/2000/svg">
  <defs
     id="defs6" />
  <g
     id="g8">
    <g
       id="g7"
       transform="translate(-1.5461192,-2.1290635)">
      <path
         style="fill:#3e88c1;stroke-width:1.33333"
         d="m 52.584538,1161.292 c -17.311893,-5.5003 -30.507012,-17.4988 -38.858495,-35.3345 L 10,1118 V 1004.6667 891.33333 l 4.953486,-10.37377 c 6.154855,-12.88973 15.79398,-22.87395 27.713182,-28.70536 11.920091,-5.83184 19.291919,-6.92087 46.848655,-6.92087 13.099907,0 23.818017,-0.49512 23.818017,-1.10028 0,-0.60514 -2.76662,-4.65514 -6.14805,-9 C 96.524808,821.53523 78.217556,793.31909 68.321031,775.33333 4.1127759,658.64244 -12.286395,522.95127 22.05411,392.50833 62.387219,239.30239 171.1661,113.10067 319.2293,47.735331 397.90504,13.00242 491.79678,-1.6709837 581.33335,6.7737024 726.04356,20.422116 855.6308,89.819115 944.68604,201.35757 c 59.41916,74.42031 95.81106,160.91074 109.38786,259.97576 2.8577,20.8511 4.0548,84.43188 2.046,108.66667 -4.2624,51.42416 -16.9413,104.46053 -36.2101,151.46843 -14.402,35.13492 -37.94518,76.82058 -60.66226,107.40866 -6.07688,8.1824 -10.69358,15.2324 -10.25931,15.66667 0.43427,0.43427 11.10768,0.78957 23.71871,0.78957 27.05256,0 34.10516,1.10016 46.72596,7.289 18.3228,8.9849 30.0211,26.00655 32.6513,47.50935 0.8684,7.09916 1.2294,48.35639 0.9791,111.89042 l -0.3966,100.6446 -3.1022,8.5947 c -6.4058,17.7473 -16.5618,29.0143 -33.5645,37.2362 l -10,4.8357 -472.66665,0.2633 c -463.299013,0.258 -472.826859,0.2123 -480.748812,-2.3046 z m 257.017632,-62.4105 c 16.01177,-5.6731 29.31848,-16.9111 36.27184,-30.6329 9.82811,-19.3948 10.11507,-52.1878 0.62908,-71.88945 -6.22149,-12.92154 -20.75505,-24.98836 -36.17223,-30.03282 -12.99509,-4.25196 -35.80882,-3.95498 -48.68249,0.63372 -24.18939,8.6221 -38.3438,24.77852 -43.64954,49.82335 -5.22361,24.6573 0.39016,49.843 14.6184,65.5842 8.87279,9.8163 19.50395,15.6347 34.71611,19.0002 9.05659,2.0037 33.68508,0.555 42.26883,-2.4863 z m -36.93549,-24.8862 c -7.9445,-2.8119 -16.02661,-12.0591 -18.78501,-21.4929 -3.02254,-10.3373 -2.96336,-28.5191 0.1248,-38.3372 2.83155,-9.0022 9.95872,-17.67077 17.25247,-20.98369 7.32836,-3.32864 22.18996,-3.326 29.40775,0.005 6.72797,3.10516 10.39,7.08249 14.2682,15.49659 2.70192,5.862 3.06399,8.704 3.05543,23.9834 -0.008,15.3907 -0.36603,18.1243 -3.18914,24.3913 -7.12117,15.808 -25.00896,22.9986 -42.1345,16.9372 z m 174.98709,24.6579 c 10.67162,-3.7058 20.2301,-12.1481 24.47159,-21.614 2.51267,-5.6076 3.15637,-9.3441 3.16507,-18.3725 0.0212,-21.9444 -8.32146,-29.7688 -41.29042,-38.7258 -24.17306,-6.5673 -28.66666,-9.2889 -28.66666,-17.3624 0,-3.95562 0.86222,-5.73363 4.10276,-8.46037 5.42242,-4.56266 8.85488,-5.28298 21.15656,-4.43981 6.85466,0.46983 13.16792,1.90257 18.8561,4.27927 4.70319,1.96512 9.41574,3.67857 10.47235,3.80768 1.90576,0.23285 10.45301,-17.36859 10.65133,-21.93442 0.10934,-2.51641 -8.86413,-6.72362 -21.51798,-10.08874 -12.89327,-3.42879 -36.85014,-3.04138 -46.59742,0.75354 -10.0783,3.9238 -15.46872,7.71978 -20.69785,14.57563 -5.34868,7.0126 -7.32781,13.99271 -7.32781,25.84412 0,20.9295 9.93486,29.7107 44.51373,39.3446 20.39607,5.6825 25.05489,8.8381 25.05489,16.9708 0,14.9203 -28.16722,18.4852 -53.13213,6.7246 -5.38933,-2.5389 -10.35428,-4.2728 -11.0332,-3.8532 -0.67892,0.4196 -3.35189,4.9677 -5.93995,10.1069 -3.85199,7.649 -4.40535,9.7057 -3.05056,11.3381 3.57227,4.3043 21.32604,11.489 34.1737,13.8295 10.77797,1.9635 33.27756,0.5263 42.6359,-2.7235 z m 123.01291,0.9692 6,-1.7923 -0.3099,-11.1583 c -0.17044,-6.137 -0.77044,-11.606 -1.33334,-12.1532 -0.56288,-0.5473 -4.02342,-0.4191 -7.69009,0.2847 -8.85717,1.7002 -15.68013,0.4182 -19.52127,-3.6679 -3.13165,-3.3313 -3.1471,-3.5114 -3.53706,-41.1979 l -0.39168,-37.85186 15.72501,-0.37616 15.725,-0.37615 0.38847,-11.88724 c 0.28137,-8.61058 -0.0861,-12.18833 -1.33334,-12.97958 -0.94698,-0.60079 -8.1718,-1.10154 -16.05513,-1.11276 l -14.33333,-0.0204 v -18.7085 c 0,-13.7621 -0.44066,-18.8651 -1.66667,-19.30072 -0.91667,-0.32571 -8.56667,1.05554 -17,3.06945 l -15.33333,3.66163 -0.37566,15.63908 -0.37564,15.63906 h -9.879 c -6.17838,0 -10.24494,0.59212 -10.85592,1.5807 -1.12744,1.82425 -0.77596,12.92677 0.62532,19.75264 l 0.95803,4.66666 9.28476,0.66667 9.28477,0.66667 0.66667,42.66661 c 0.64724,41.4234 0.75807,42.8523 3.80316,49.0363 6.40305,13.0033 20.06297,18.7924 41.53017,17.6004 5.5,-0.3054 12.7,-1.3618 16,-2.3476 z m 145.44861,-0.7658 c 12.69303,-3.3077 28.53772,-9.4231 36.49083,-14.0839 l 6.10064,-3.5753 -0.35338,-38.932 -0.35336,-38.9321 H 723.33336 688.66669 V 1016.6667 1030 l 16.66667,0.6667 16.66666,0.6666 0.37154,16.7803 0.37152,16.7803 -5.03819,2.1627 c -8.55483,3.6722 -15.27888,4.9282 -26.42473,4.936 -37.20586,0.026 -57.86221,-22.1343 -57.9271,-62.1439 -0.0431,-26.52306 7.34416,-43.74547 23.35607,-54.45221 18.80918,-12.5772 50.07283,-12.33358 70.3372,0.5481 3.5088,2.23048 6.88425,4.05541 7.50101,4.05541 0.61676,0 2.92726,-7.20804 5.13444,-16.01787 l 4.01306,-16.01786 -3.51407,-2.48182 c -5.87801,-4.15136 -21.99901,-9.2699 -34.42187,-10.92922 -45.44476,-6.07006 -83.61084,11.65629 -100.91463,46.87009 -7.75824,15.78827 -10.36322,27.94156 -10.41209,48.57668 -0.0695,29.3327 7.61705,50.7657 24.18504,67.4373 12.35568,12.4329 28.20543,20.6125 46.40065,23.9459 10.36588,1.899 39.6761,0.4498 51.09742,-2.5266 z m 224.94095,1.6964 c 12.61246,-2.5939 26.64162,-9.7528 33.08154,-16.881 10.6438,-11.7815 16.18428,-31.2704 13.75878,-48.3975 -1.59176,-11.2398 -4.86832,-17.5035 -12.9633,-24.7816 -8.30363,-7.4657 -18.85082,-12.5385 -42.26656,-20.32865 C 903.68527,980.52247 898.15387,976.32909 898.15387,964 c 0,-13.20748 9.68873,-20.01027 28.46201,-19.98417 13.15686,0.0183 22.50995,2.20313 34.31931,8.01686 4.61419,2.27156 8.89508,3.81759 9.51311,3.43563 1.49949,-0.92675 12.2184,-25.35871 12.2184,-27.84983 0,-4.13305 -25.06744,-12.326 -44.46014,-14.53117 -30.04329,-3.41627 -55.05139,4.821 -66.64853,21.95297 -6.20512,9.16655 -8.89134,18.98082 -8.89134,32.48503 0,14.59928 3.48814,24.0898 11.97216,32.57378 7.47811,7.4782 18.86807,13.1242 45.32363,22.4671 10.6127,3.7479 21.51852,8.3548 24.23519,10.2374 12.89044,8.9331 11.67537,26.4568 -2.40848,34.7351 -6.08455,3.5764 -7.33767,3.7946 -21.78916,3.7946 -17.78168,0 -28.92567,-2.8269 -41.8282,-10.6107 -4.30552,-2.5974 -8.35946,-4.7226 -9.00876,-4.7226 -0.64931,0 -3.98883,5.6533 -7.42118,12.5629 -7.31249,14.7207 -7.35264,14.5828 6.23882,21.4274 22.69394,11.4285 49.80907,15.3478 73.07553,10.5627 z m -827.7229,-32.2863 c 0,-21.8667 0.44912,-30.8492 1.6,-32 1.08804,-1.0881 7.41927,-1.6 19.78672,-1.6 27.75891,0 45.51977,-5.503 57.98171,-17.9649 11.52244,-11.5225 16.05529,-25.7174 15.02758,-47.05985 -0.54006,-11.21552 -1.27266,-14.62779 -4.72388,-22.00287 -6.90548,-14.75668 -18.16057,-23.29745 -37.67213,-28.58697 -7.34979,-1.99251 -14.64326,-2.35223 -48,-2.36747 L 78.000002,916.66667 77.654698,1006 c -0.189917,49.1333 -0.05875,90.0833 0.291487,91 0.464409,1.2155 5.340339,1.6667 18.011971,1.6667 h 17.375184 z m 1,-62.37 c -0.55,-0.5543 -1,-14.03434 -1,-29.95566 0,-24.39272 0.32191,-29.21503 2.04578,-30.64569 2.88275,-2.39248 31.86027,-0.87252 38.82402,2.03642 12.2212,5.10512 17.156,14.62507 16.19412,31.24082 -0.76619,13.23553 -4.40671,19.55574 -13.97595,24.26331 -5.54801,2.7293 -8.77861,3.2208 -23.75464,3.6137 -9.53333,0.2502 -17.78333,0 -18.33333,-0.5529 z M 830.36787,1010 c 0.20232,-48.4 0.0409,-89.35 -0.35874,-91 -0.70885,-2.92683 -1.16502,-3 -18.70117,-3 h -17.9746 v 91.371 91.3709 l 18.33333,-0.3709 18.33334,-0.371 z m -20.5776,-178.01111 c 24.26408,-12.2193 27.34182,-46.44017 5.65114,-62.83401 -8.28294,-6.26027 -15.81604,-8.37063 -26.74737,-7.49316 -19.42227,1.55904 -32.92931,16.69237 -32.92931,36.89411 0,16.9162 10.37437,30.90625 26.89333,36.26617 6.38908,2.07308 20.26757,0.62391 27.13221,-2.83311 z M 506.38252,803.14651 c 5.34371,-1.10932 14.39534,-4.35911 20.11474,-7.22176 22.85677,-11.44019 33.63682,-30.50848 42.82774,-75.75587 2.14104,-10.54044 4.13355,-19.4052 4.42782,-19.69945 0.29425,-0.29426 6.47025,0.49338 13.72444,1.7503 18.71355,3.24248 64.84931,3.22732 85.85609,-0.0283 26.11781,-4.04762 62.03021,-13.54483 65.07057,-17.20823 0.75994,-0.91568 1.80526,-3.46152 2.32293,-5.65741 0.51767,-2.19591 2.73483,-8.37363 4.92703,-13.72827 2.1922,-5.35464 3.75709,-9.96445 3.47753,-10.244 -0.27956,-0.27956 -8.44435,2.46867 -18.14399,6.10717 -18.69246,7.01188 -48.81095,15.21767 -50.96608,13.88572 -0.70712,-0.43701 2.56721,-5.84424 7.27628,-12.01602 4.70907,-6.1718 12.23147,-17.39599 16.71644,-24.94264 8.02839,-13.5089 19.98596,-37.20488 19.98596,-39.60554 0,-1.1816 -7.75893,-3.23386 -18.3025,-4.84109 l -5.03083,-0.76689 -7.12099,13.94156 c -11.32935,22.18077 -22.18603,37.59832 -36.83932,52.31545 -15.20961,15.27588 -23.84301,20.3806 -36.39353,21.51864 -12.75779,1.15684 -31.26231,-5.5324 -39.71727,-14.35747 -3.529,-3.68349 -3.57595,-3.95682 -2.43036,-14.15224 l 1.16813,-10.39621 12,-1.68543 c 29.19063,-4.09988 45.60438,-13.52501 53.6549,-30.80982 2.68164,-5.75758 3.20696,-8.61474 2.74869,-14.95003 -1.004,-13.88031 -4.78184,-15.96377 -31.38692,-17.30977 -13.8032,-0.69834 -19.86499,-1.5381 -22.21433,-3.07746 -3.88452,-2.54522 -7.12802,-11.08581 -5.01326,-13.20057 2.2928,-2.2928 27.15363,-2.84369 46.51798,-1.03077 14.06966,1.31721 18.21488,1.33272 18.99464,0.0711 1.52852,-2.47318 2.74572,-20.5371 1.46982,-21.813 -1.63654,-1.63654 -38.31121,-3.04522 -55.43818,-2.1294 -8.06667,0.43135 -15.06771,0.43334 -15.55788,0.004 -0.7872,-0.68885 14.14564,-114.20665 15.5828,-118.45877 0.44826,-1.32627 14.78786,-1.60632 68.27126,-1.33333 l 67.70382,0.34596 -0.43397,17.66666 c -0.50491,20.55396 -1.47655,19.61718 14.43397,13.91638 7.62572,-2.73232 10.06281,-4.21619 10.26453,-6.24971 0.1455,-1.46667 0.64982,-7.92213 1.12071,-14.34548 l 0.85617,-11.67883 67.54597,0.3455 67.54596,0.34548 L 897.70975,424 c -0.15966,4.03333 -1.88272,15.38747 -3.82906,25.23141 l -3.53878,17.89808 3.81514,2.76859 c 2.09832,1.52272 6.74438,5.36561 10.32457,8.53975 3.58017,3.17414 6.99076,5.27414 7.57905,4.66666 1.63636,-1.68966 7.46021,-31.02582 10.01297,-50.43782 C 924.9924,410.4716 925.02611,378.52948 922.15031,360 913.54874,304.57777 887.87729,249.54959 850.30713,206 802.85644,150.99739 727.46064,112.54534 647.58335,102.61037 c -21.85996,-2.718897 -57.54556,-1.00446 -80.91667,3.88746 -67.68128,14.16671 -123.55655,44.06528 -166.91899,89.31748 l -14.06414,14.67706 -13.57723,1.84435 -13.57723,1.84433 -14.9312,-5.84698 c -30.52929,-11.95515 -51.43485,-15.68116 -82.05932,-14.62551 -24.42624,0.842 -38.42299,4.08444 -58.32202,13.51071 -51.48075,24.38666 -77.91688,67.93306 -81.41789,134.11406 -3.06434,57.92636 20.18145,149.7908 57.68095,227.94778 23.05126,48.04376 38.56614,66.80865 60.8285,73.57064 17.33627,5.26572 34.30069,0.3699 53.02523,-15.30275 12.8631,-10.76655 31.43419,-32.81396 46.43991,-55.13297 3.05093,-4.53786 6.12948,-8.61055 6.84123,-9.05043 0.71174,-0.43988 3.56465,0.34024 6.3398,1.7336 5.17489,2.59823 17.98063,6.95693 28.04573,9.54596 3.11667,0.80169 5.66667,2.07639 5.66667,2.83267 0,3.19308 -8.75573,13.72684 -14.36856,17.2864 -6.58871,4.17842 -11.69754,6.19312 -26.77679,10.55958 -11.73045,3.39676 -21.99011,11.84719 -24.15792,19.89786 -2.88043,10.69708 4.41457,22.88153 17.55553,29.32208 16.80743,8.23753 39.56129,8.51665 61.41149,0.75333 17.41669,-6.18811 15.66946,-7.54997 15.67036,12.21415 0.001,23.84208 2.37598,63.85618 4.74973,80.02645 2.13035,14.51229 6.79701,29.92473 11.23505,37.10563 11.4765,18.56934 39.95704,25.65273 74.39695,18.5032 z m -43.04917,-22.3874 C 451.57747,776.39227 445.68944,764.53593 441.70852,737.21453 439.88957,724.73093 439.47364,710.15336 439.39131,656 l -0.1004,-66 -3.18386,-7.95868 c -2.13322,-5.33241 -5.53609,-10.31092 -10.31213,-15.08696 -3.92052,-3.92055 -7.12824,-7.82641 -7.12824,-8.67968 0,-0.85328 2.97696,-9.96415 6.61547,-20.24637 14.33428,-40.50791 17.77514,-57.80071 17.78096,-89.36164 0.008,-43.13958 -10.20347,-73.54595 -28.09327,-83.65303 -8.37507,-4.73161 -23.09812,-6.28847 -35.36207,-3.73929 -26.43977,5.49576 -52.25179,29.15681 -56.79153,52.05898 C 320.48182,425.11 317.05449,487.4608 318.0523,500 c 1.05222,13.22297 4.61799,28.16644 8.569,35.91105 3.24418,6.35912 3.52606,5.56667 -8.33132,23.42228 -16.33261,24.59471 -35.27778,46.38071 -47.86186,55.03879 -14.36865,9.88588 -24.71707,8.91016 -37.05869,-3.49416 -26.63373,-26.76907 -66.8327,-126.47617 -81.25688,-201.54463 -14.78933,-76.96886 1.59752,-139.4957 44.55412,-170.0039 23.31846,-16.56099 50.47463,-23.36334 82.72446,-20.72162 23.40141,1.91691 42.68209,7.43584 69.04297,19.76299 12.58279,5.88409 13.32084,6.06247 18.66667,4.51147 42.06779,-12.20527 72.59106,-13.61868 106.78451,-4.9448 50.19427,12.73281 85.93094,47.47509 98.09279,95.3633 2.89561,11.4017 5.68384,31.75559 4.59209,33.52207 C 576.17003,367.47028 571.47388,368 566.1343,368 c -17.24022,0 -30.5829,9.06613 -39.58358,26.89639 -8.1384,16.12208 -9.35282,34.28726 -3.87082,57.89938 3.09981,13.35159 6.42925,20.96691 20.63774,47.20423 6.15548,11.36667 12.87626,25.46667 14.93504,31.33333 3.57306,10.18164 3.73899,11.72768 3.6492,34 -0.19013,47.1669 -9.2469,130.61726 -17.88982,164.83944 -7.3193,28.98118 -17.52894,42.8497 -35.75247,48.56523 -11.91216,3.73605 -37.24176,4.87557 -44.92624,2.02111 z M 358.24974,637.26019 c -11.24977,-1.86366 -17.28669,-8.34666 -9.24973,-9.93322 11.67741,-2.3052 24.6252,-6.78822 31.27891,-10.82994 9.35129,-5.68035 20.66024,-17.95294 26.30863,-28.5504 2.32953,-4.37064 4.73817,-7.94663 5.35253,-7.94663 2.40923,0 9.36103,9.59532 10.78612,14.88769 1.67663,6.22654 0.69847,15.77896 -2.18717,21.35915 -6.611,12.78429 -41.30759,24.48921 -62.28929,21.01335 z m 223.52657,-30.12647 c 0.46484,-7.07645 1.11542,-13.13653 1.44574,-13.46685 0.33032,-0.33032 4.42882,0.35949 9.1078,1.53293 4.7194,1.18359 13.96066,2.13353 20.75536,2.13353 11.06405,0 12.24814,0.24042 12.24814,2.48686 0,3.70965 -4.89926,9.2375 -10.9006,12.29916 C 608.17502,615.3118 590.61729,620 584.91897,620 h -3.98782 z m -204.44296,-58.5852 c -18.86493,-5.61321 -26.52098,-11.50477 -32.85641,-25.28396 -5.77441,-12.55897 -6.31209,-23.52015 -3.16056,-64.42988 3.0836,-40.02784 4.0811,-46.46631 8.24191,-53.19865 3.62928,-5.8723 19.856,-17.1608 28.25194,-19.65412 9.88318,-2.935 22.78857,-2.57538 29.82542,0.8311 12.57174,6.08587 18.42384,24.48534 18.18882,57.18699 -0.20788,28.92431 -3.31359,41.99245 -20.91364,88 -7.38118,19.29484 -7.40471,19.33392 -11.82003,19.62704 -2.43327,0.16153 -9.52412,-1.2238 -15.75745,-3.07852 z m 35.90322,-132.06167 c 7.46272,-9.48732 0.0539,-18.82604 -16.73938,-21.09977 -6.52139,-0.88296 -6.9665,-0.74255 -9.66667,3.04949 -1.55677,2.1863 -2.83051,5.4202 -2.83051,7.18647 0,6.32733 11.88716,14.22171 21.5699,14.32477 3.74552,0.0399 5.5557,-0.7773 7.66666,-3.46096 z M 552.24719,485 C 536.6601,458.75005 534.40438,452.15731 533.657,430.66667 533.14128,415.83689 533.40538,413.11829 536.05331,406 c 5.84485,-15.71244 20.30891,-24.51847 34.15019,-20.79139 3.03728,0.81786 5.81678,2.25434 6.17666,3.19219 0.72087,1.87856 -2.81932,45.55619 -7.019,86.59796 -1.48196,14.48265 -2.69448,27.23265 -2.69448,28.33333 0,4.69988 -3.03253,0.84451 -14.41949,-18.33209 z m 10.52299,-71.09365 c 3.15678,-2.85687 3.41478,-10.76382 0.48757,-14.943 -4.87441,-6.9592 -17.9244,-0.0599 -17.9244,9.47636 0,6.59717 3.14969,9.3588 9.67559,8.48349 2.85893,-0.38347 6.35148,-1.74105 7.76124,-3.01685 z M 603.39587,389 c -0.28625,-0.91667 -0.81125,-9.16667 -1.16666,-18.33333 -1.1207,-28.90424 -8.41099,-56.96448 -21.26591,-81.85214 -3.8298,-7.41466 -6.96328,-13.93554 -6.96328,-14.49086 0,-0.55531 21.6,-1.23095 48,-1.5014 47.06167,-0.48214 59.14071,-1.38243 92.24007,-6.87506 l 5.57341,-0.92488 1.5188,5.64043 c 3.19795,11.87624 6.9631,30.77299 10.02807,50.32932 3.43939,21.9454 6.89776,64.00815 5.55123,67.51717 -0.74734,1.94751 -7.25758,2.15742 -66.91158,2.15742 -51.70049,0 -66.19697,-0.36275 -66.60415,-1.66667 z m 160.12049,0.62944 c -0.36092,-0.58399 -1.31439,-10.63951 -2.1188,-22.34561 -2.54494,-37.03434 -7.75255,-73.06924 -14.22999,-98.46663 -1.10108,-4.3172 -1.51181,-8.3396 -0.91276,-8.93865 0.59907,-0.59907 8.05153,-2.88436 16.56105,-5.07846 18.37884,-4.73878 40.85045,-12.82708 59.03374,-21.24825 l 13.18291,-6.10536 4.53861,5.27676 c 14.16907,16.47348 33.07991,49.50405 42.68056,74.54788 9.08279,23.69295 17.74718,65.75021 16.21925,78.72888 l -0.4709,4 -66.91372,0.34561 c -36.80255,0.1901 -67.20902,-0.13213 -67.56995,-0.71617 z M 560.8765,246.41092 c -11.39392,-1.05971 -13.98094,-1.78225 -19.62918,-5.48241 -3.5781,-2.34402 -6.75069,-4.87372 -7.05018,-5.62158 -0.78707,-1.96537 8.61493,-25.62712 16.43785,-41.36866 15.24839,-30.68332 32.56528,-51.43583 50.18847,-60.14568 8.97924,-4.43779 11.28285,-5.0106 20.36859,-5.0648 9.20626,-0.0549 11.268,0.44392 20.34673,4.92304 13.25908,6.54154 26.89065,19.25894 37.25985,34.76105 14.41042,21.5438 34.84213,67.77609 31.43278,71.1252 -1.82767,1.79539 -25.37892,5.27455 -48.23139,7.12508 -19.52679,1.58123 -83.11958,1.42323 -101.12352,-0.25124 z M 737.56202,232.34535 C 736.89577,231.0554 733.49514,222.8 730.00505,214 719.22194,186.81116 706.3283,163.13271 692.70514,145.50075 c -4.15137,-5.37296 -7.22993,-10.08704 -6.84125,-10.47572 1.21837,-1.21838 17.88435,3.526 31.96096,9.09845 23.96633,9.48747 48.61845,23.65337 70.17517,40.32491 12.1283,9.37978 26.66667,22.37128 26.66667,23.82936 0,2.78398 -32.9592,15.39449 -56.37508,21.56964 -19.45939,5.13177 -19.37453,5.12154 -20.72959,2.49796 z M 490.5754,217.91532 c -17.46635,-6.00992 -38.37079,-10.83185 -52.80111,-12.17937 -4.64252,-0.43352 -8.44094,-1.37583 -8.44094,-2.09399 0,-1.61812 9.21942,-9.84307 22.50338,-20.07599 22.10178,-17.02548 48.75034,-31.22282 74.94683,-39.92884 14.66927,-4.8751 28.97343,-8.32461 30.05111,-7.24693 0.34273,0.34275 -3.24741,6.09168 -7.97812,12.77541 -9.90225,13.99032 -19.54905,32.12226 -30.2378,56.83439 -4.31024,9.9652 -8.30235,17.40733 -9.39129,17.50741 -1.04176,0.0957 -9.43519,-2.4207 -18.65206,-5.59209 z M 823.67997,724 c 0.19064,-2.56667 1.58252,-10.21101 3.09307,-16.98743 3.89913,-17.49174 8.62644,-23.87884 43.18384,-58.3459 32.14406,-32.06004 36.89774,-38.5167 44.17466,-60 4.72605,-13.95248 5.92745,-35.73094 2.68609,-48.69203 -3.91121,-15.63959 -10.85831,-27.38021 -24.12919,-40.77836 -22.31327,-22.52729 -49.38643,-34.11993 -84.27829,-36.08769 -66.82501,-3.76868 -120.93724,34.84688 -128.59789,91.77001 -0.80023,5.94613 -0.93005,11.14317 -0.29241,11.70515 1.50806,1.32912 54.46376,11.27686 60.44929,11.35541 4.57386,0.06 4.64918,-0.0309 5.63715,-6.81024 3.21607,-22.06792 17.96023,-40.1864 37.77371,-46.41849 10.05926,-3.16403 27.98347,-2.37815 36.90967,1.61829 20.57837,9.21337 30.59221,31.49756 23.90545,53.19769 -3.47067,11.26312 -7.27903,16.0201 -31.813,39.73724 -39.93654,38.60692 -49.30331,54.91346 -50.70172,88.26623 -0.40436,9.64445 -0.36238,18.507 0.0933,19.69453 0.73576,1.91738 4.22888,2.11902 31.19408,1.80071 l 30.36555,-0.35845 z"
         id="path11" />
      <path
         style="fill:#3fa135;stroke-width:1.33333"
         d="m 56.14977,1161.8926 c -22.19134,-5.968 -40.427143,-24.4606 -45.402383,-46.0416 -0.8473183,-3.6754 -1.3609838,-45.0367 -1.3814587,-111.2375 -0.028151,-91.01665 0.2495684,-106.47015 2.0367397,-113.33337 4.900945,-18.82093 19.381705,-34.5667 38.597334,-41.96912 7.1896,-2.76964 10.802632,-3.1425 35.666667,-3.68088 16.074091,-0.34804 27.666671,-1.12738 27.666671,-1.85997 0,-0.69351 -3.49761,-5.87551 -7.77247,-11.51555 C 50.67285,759.83801 14.5747,664.57613 6.6123189,571.13252 4.4748633,546.04812 5.5989883,483.60333 8.5769121,462 23.869705,351.05849 66.975774,257.57443 140.40531,176.10393 206.29977,102.99366 301.91964,45.3484 396.9476,21.445228 442.44189,10.001669 468.33919,6.6490096 518.41292,5.7203489 563.04047,4.8926927 583.4413,6.1935405 618.87486,12.126248 768.26164,37.138359 893.25449,118.52708 974.97532,244 c 45.19718,69.39507 74.15868,155.80273 81.11568,242.0114 2.0166,24.98885 0.9317,80.87941 -2.0034,103.20603 -11.9261,90.72046 -46.3065,176.15586 -97.94256,243.38762 -4.47976,5.83279 -8.14501,11.08279 -8.14501,11.66667 0,0.58389 10.05,1.06615 22.33333,1.07168 12.28334,0.005 26.2217,0.64093 30.97414,1.41197 19.7442,3.20332 36.2418,15.70994 45.0461,34.14892 l 4.9798,10.42904 0.3708,109.97077 c 0.3591,106.4846 0.2869,110.2464 -2.2779,118.6667 -6.3944,20.9927 -22.488,36.2953 -44.2682,42.0923 -10.85822,2.8901 -938.24763,2.7234 -949.00833,-0.1705 z m 248.34216,-61.2364 c 24.67353,-6.4267 41.81993,-23.9649 47.56929,-48.6562 2.41111,-10.3548 2.1252,-32.2045 -0.55645,-42.5264 -8.95681,-34.47553 -43.25151,-53.17324 -82.33409,-44.88913 -17.14938,3.63505 -35.43613,16.09724 -43.29265,29.50338 -7.42866,12.67605 -9.03085,19.84855 -9.06444,40.57885 -0.0279,17.2214 0.31286,20.2072 3.11936,27.3333 8.05334,20.4486 22.01211,33.0385 42.73372,38.5431 9.77869,2.5977 32.05506,2.6579 41.82526,0.1131 z m -30.41483,-26.561 c -14.88211,-5.5414 -22.07709,-18.4487 -22.07709,-39.6049 0,-21.3605 5.67101,-33.6223 18.57241,-40.15697 14.13238,-7.15817 32.70803,-3.46564 40.4669,8.04417 5.616,8.331 6.96316,14.4284 6.83929,30.9558 -0.16155,21.5571 -4.17535,31.212 -15.81039,38.0306 -7.32486,4.2926 -20.37752,5.5663 -27.99112,2.7313 z m 174.29933,24.6603 c 17.3191,-6.6927 26.16526,-18.4854 27.30337,-36.398 0.78308,-12.3245 -1.26167,-19.8158 -7.20413,-26.3934 -6.17342,-6.8332 -15.17766,-11.1009 -35.01335,-16.595 -8.9312,-2.4738 -18.46389,-5.6505 -21.18376,-7.0594 -8.46321,-4.3837 -9.14796,-13.57539 -1.43883,-19.31418 7.48546,-5.57225 28.43686,-4.09219 43.24791,3.05516 2.98153,1.43879 6.06409,2.61599 6.85013,2.61599 1.57154,0 9.74755,-19.28586 9.73608,-22.96576 -0.009,-2.83964 -4.41152,-5.17698 -17.3405,-9.20591 -8.33931,-2.59868 -12.87855,-3.11361 -27.33334,-3.10064 -18.7402,0.0168 -26.89516,2.06312 -36.51958,9.1638 -14.40138,10.62499 -20.18981,34.34344 -12.20239,50.00014 5.62128,11.0186 16.09527,17.0783 41.6942,24.1224 8.47261,2.3313 17.25383,5.3633 19.51381,6.7377 7.25334,4.411 7.1343,13.6113 -0.24728,19.1121 -3.05346,2.2754 -6.10726,2.8891 -16.22836,3.2613 -13.83086,0.5086 -24.00928,-1.6828 -33.58116,-7.23 -3.06392,-1.7757 -6.38234,-3.2285 -7.37428,-3.2285 -1.63765,0 -11.72163,18.3235 -11.72163,21.2992 0,3.1725 16.7425,10.7127 31.33334,14.1114 12.33184,2.8725 37.88684,1.8074 47.70975,-1.9884 z m 119.58235,1.8296 c 5.03352,-1.1448 9.41374,-2.7948 9.73382,-3.6666 0.67519,-1.839 -1.1934,-20.3654 -2.2219,-22.0296 -0.38106,-0.6166 -5.50651,-0.8424 -11.3899,-0.5018 -12.71142,0.7359 -16.52752,-1.0371 -18.75782,-8.715 -0.93195,-3.2084 -1.31078,-17.2125 -1.05514,-39.0054 L 544.66668,992.66667 560.00002,992 575.33335,991.33333 V 978.66667 966 l -15.33333,-0.66667 -15.33334,-0.66666 -0.36994,-19 c -0.43386,-22.28296 1.57638,-20.77539 -20.29672,-15.22148 l -14,3.55481 -0.66667,15.33333 -0.66667,15.33334 -10.66666,0.66666 -10.66667,0.66667 0.48817,9.98712 c 0.75115,15.36736 1.07604,15.81615 11.78851,16.284 l 9.05665,0.39555 0.66667,43.33333 c 0.71901,46.736 0.81212,47.348 8.48929,55.7964 8.83936,9.7274 29.83064,13.4071 50.13614,8.7887 z m 149.63868,-1.6906 c 12.8401,-3.4402 28.51927,-9.6722 35.6336,-14.1633 l 5.43563,-3.4313 v -39.3388 -39.3387 l -35,0.3555 -35,0.3554 -0.38431,13.2232 c -0.28135,9.6804 0.0759,13.5151 1.33334,14.3129 0.9447,0.5994 8.76764,1.099 17.3843,1.1102 l 15.66667,0.02 v 15.8367 c 0,11.0597 -0.50273,16.2444 -1.66667,17.1883 -8.47169,6.8697 -39.22903,8.6365 -53.45823,3.0709 -21.97084,-8.5937 -34.16213,-29.5641 -34.16213,-58.7626 0,-21.54693 6.14247,-38.30651 18.01713,-49.15929 10.02862,-9.16558 19.02767,-12.44766 36.20722,-13.20525 15.94585,-0.70317 26.7484,1.91441 39.39991,9.54707 6.98194,4.21221 7.78214,4.41913 8.91362,2.30496 2.21879,-4.14584 8.09914,-29.22595 7.32524,-31.24268 -0.9408,-2.45171 -13.35869,-8.09091 -24.66444,-11.20059 -12.07122,-3.32024 -46.30347,-3.33284 -58.57832,-0.0216 -16.10661,4.34493 -27.65556,11.04421 -39.39584,22.85263 -12.26051,12.33165 -19.06543,24.03042 -23.49445,40.3908 -3.83276,14.15778 -4.13614,44.63325 -0.58139,58.40065 8.48851,32.8755 31.32269,55.2235 64.13835,62.7728 11.88268,2.7336 43.62644,1.6863 56.93077,-1.8783 z m 226.95532,1.1346 c 13.26541,-3.3927 22.00398,-8.2096 29.57261,-16.3011 11.88109,-12.7018 17.26245,-31.9549 14.01331,-50.136 -3.74403,-20.9504 -15.83854,-30.7768 -52.80534,-42.90275 -21.04696,-6.90388 -32.15873,-12.50612 -34.75201,-17.52096 -2.72054,-5.26093 -2.39352,-14.36657 0.69804,-19.43689 3.57021,-5.85536 9.70139,-8.68119 20.51405,-9.45484 12.73128,-0.91092 25.28615,1.66109 37.66168,7.71543 5.7997,2.8373 10.94547,4.74984 11.43504,4.25005 0.48958,-0.49979 3.60798,-7.06479 6.92976,-14.58888 5.96475,-13.51059 6.00736,-13.71023 3.43727,-16.10461 -3.527,-3.28591 -21.14881,-9.27831 -34.03975,-11.57542 -37.55744,-6.69257 -67.95717,3.4552 -79.135,26.41616 -5.20132,10.68434 -7.33152,24.35566 -5.53407,35.51687 3.61696,22.45921 15.30095,32.28694 54.80661,46.09914 21.84148,7.6364 26.61929,9.9946 31.144,15.3719 2.90552,3.453 3.50105,5.4867 3.50105,11.9561 0,6.4694 -0.59553,8.5032 -3.50105,11.9562 -11.66731,13.8658 -39.79075,14.184 -66.52591,0.7527 -6.61483,-3.3232 -12.6778,-6.0422 -13.47328,-6.0422 -1.86083,0 -12.8004,23.466 -12.24983,26.2765 0.52723,2.6914 13.90908,10.1855 24.55621,13.752 21.38135,7.1622 45.47319,8.6742 63.74661,4.0006 z m -830.69543,-3.4715 c 0.44513,-1.16 0.80932,-15.1667 0.80932,-31.126 v -29.017 l 19.66667,-0.8247 c 31.43805,-1.3184 45.60283,-5.9794 59.05624,-19.4328 11.52671,-11.5267 13.90441,-18.72441 13.92632,-42.1571 0.0163,-17.40116 -0.22076,-19.17468 -3.49612,-26.16001 C 199.1243,937.82595 192.34226,930.59208 183.02446,925.65931 167.26314,917.31537 164.58927,916.92543 119,916.32244 l -41.666664,-0.55109 v 91.44765 91.4477 h 17.857348 c 15.053576,0 17.984416,-0.3312 18.666666,-2.1091 z m 1.80932,-90.6429 c -0.55,-0.5642 -1,-14.42581 -1,-30.80359 v -29.77778 l 15.66667,0.008 c 8.61666,0.004 17.83724,0.61036 20.49017,1.34727 12.20318,3.38971 18.35743,11.52333 19.48756,25.75531 1.2096,15.2325 -3.99412,25.46504 -15.60036,30.67639 -4.66559,2.0949 -9.69312,2.8401 -22.04404,3.2673 -8.8,0.3044 -16.45,0.092 -17,-0.4723 z m 714.33336,1.4186 V 916.66667 H 811.33336 792.66669 L 792.32138,1006 c -0.18992,49.1333 -0.0523,90.1003 0.306,91.0378 0.49491,1.2952 5.05991,1.6154 19.01198,1.3333 L 830.00003,1098 Z m -24,-151.8151 c 23.35585,-6.24823 41.00682,-25.67308 44.9496,-49.46691 2.72766,-16.46097 -2.06776,-33.52518 -13.25958,-47.18332 -3.79816,-4.63514 -4.37792,-6.03646 -2.8878,-6.97997 1.02544,-0.64928 2.50986,-1.18969 3.2987,-1.20092 0.78882,-0.0107 2.78677,-1.46012 4.43988,-3.21977 2.40833,-2.56356 3.37073,-6.07439 4.84284,-17.66667 2.00393,-15.7804 3.08974,-20.25743 6.59964,-27.21187 1.27377,-2.52382 14.73765,-16.88877 29.91976,-31.9221 35.41943,-35.07238 44.11301,-47.20351 53.77383,-75.03666 4.14589,-11.94446 4.26893,-12.94592 4.29564,-34.96334 0.026,-21.4556 -0.17254,-23.23659 -3.7162,-33.33334 -4.51011,-12.85037 -12.00466,-25.87388 -20.01923,-34.78801 l -5.91696,-6.58108 3.16765,-13.98212 c 4.47684,-19.76096 8.30814,-47.16011 9.31968,-66.64879 4.13174,-79.60389 -39.07235,-174.80364 -103.88369,-228.90662 -56.49871,-47.16379 -132.36813,-75.4758 -202.2571,-75.4758 -43.98817,0 -89.63077,11.24383 -134.00001,33.01024 -33.95648,16.65817 -54.6224,31.4859 -82.66667,59.31306 l -17.33333,17.19914 -13.33333,1.63126 -13.33334,1.63126 -15.33333,-6.06654 c -49.5703,-19.61216 -99.07457,-20.0192 -139.34943,-1.14574 -27.94846,13.09708 -51.92614,36.06509 -65.14331,62.40018 -16.97081,33.81419 -21.17765,85.24556 -11.50743,140.68586 9.53285,54.65272 34.56118,127.34674 60.96019,177.05704 16.26519,30.62796 28.34571,45.20481 43.78856,52.83708 17.77299,8.78389 33.89542,7.57233 51.73218,-3.88752 15.06841,-9.68126 39.73105,-37.12779 57.55832,-64.05547 5.87904,-8.88016 3.63641,-8.74871 25.29425,-1.48265 22.28456,7.47632 21.00007,6.80758 19.27331,10.03406 -2.69241,5.03082 -10.94433,13.30696 -16.49512,16.54355 -2.99467,1.74616 -11.32176,4.79937 -18.50464,6.78493 -14.92947,4.12695 -23.37947,9.60627 -27.61354,17.90572 -3.27786,6.42515 -3.32257,11.06627 -0.17337,17.9984 9.98747,21.98476 50.49519,28.7276 84.62391,14.08632 3.54412,-1.52042 6.99412,-2.76442 7.66667,-2.76442 0.69373,0 1.22849,9.95128 1.23597,23 0.007,12.65 0.60863,31.7 1.33637,42.33333 4.94243,72.21448 17.89691,90.03693 65.31711,89.86164 13.03963,-0.0483 18.97779,-0.70895 27.28652,-3.03615 34.76724,-9.73804 49.06358,-29.63842 59.965,-83.47081 1.92819,-9.5216 3.9354,-17.70375 4.46047,-18.18257 0.52508,-0.47882 5.45468,-0.0313 10.95468,0.9945 14.86574,2.77256 53.73096,3.79962 73.33334,1.93788 20.58209,-1.95477 43.95236,-6.55988 63.62269,-12.53684 8.22582,-2.49946 15.25942,-4.24109 15.63023,-3.87029 0.37081,0.37081 0.30952,11.8406 -0.13619,25.48843 -0.93233,28.54804 -0.0107,32.80358 8.15124,37.61898 2.60262,1.53558 4.73203,3.10998 4.73203,3.49867 0,0.38868 -2.16891,3.1074 -4.81977,6.04161 -19.44766,21.52623 -16.96448,58.43263 5.39353,80.16214 14.22597,13.82606 36.43339,19.91368 54.75958,15.01101 z"
         id="path9" />
    </g>
  </g>
</svg>
